<svg viewBox="0 0 800 500" xmlns="http://www.w3.org/2000/svg">
  <rect width="100%" height="100%" fill="#000" />
  <path d="M400 250 m -150, 0 a 150,150 0 1,0 300,0 a 150,150 0 1,0 -300,0" fill="none" stroke="white" stroke-width="0.5" stroke-dasharray="2 10" opacity="0.5" />
  <path d="M400 250 m -100, 0 a 100,100 0 1,0 200,0 a 100,100 0 1,0 -200,0" fill="none" stroke="white" stroke-width="1" opacity="0.3" />
  <path d="M400 50 V450" stroke="white" stroke-width="0.2" opacity="0.2" />
  <path d="M400 200 L410 240 L450 240 L455 250 L410 250 L410 320 L390 320 L390 250 L345 250 L350 240 L390 240 Z" fill="white" opacity="0.7" />
</svg>